<svg xmlns="http://www.w3.org/2000/svg" xmlns:xlink="http://www.w3.org/1999/xlink" xmlns:xodm="http://www.corel.com/coreldraw/odm/2003" xml:space="preserve" version="1.1" style="shape-rendering:geometricPrecision; text-rendering:geometricPrecision; image-rendering:optimizeQuality; fill-rule:evenodd; clip-rule:evenodd" viewBox="1420.14 3011.71 8852.17 2248.86">
 <defs>
  <style type="text/css">
   <![CDATA[
    .str0 {stroke:#fff;stroke-width:5.19;stroke-linecap:round;stroke-linejoin:round;stroke-miterlimit:2.61313}
    .fil2 {fill:none;fill-rule:nonzero}
    .fil5 {fill:#FEFEFE}
    .fil0 {fill:#00AFEF}
    .fil1 {fill:#2E538E}
    .fil4 {fill:#00AFEF;fill-rule:nonzero}
    .fil3 {fill:#fff;fill-rule:nonzero}
   ]]>
  </style>
 </defs>
 <g id="Layer_x0020_1">
  <metadata id="CorelCorpID_0Corel-Layer"/>
  <g id="_2291558450160">
   <g>
    <path class="fil0" d="M2440.54 3011.72c0,0 341.51,371.78 1010.72,194.74l8.97 749.02c0,831.3 -418.49,1070.58 -1019.7,1305.09 -577.37,-241.85 -1040.79,-465.63 -1019.7,-1296.93l8.98 -749.02c611.82,149.94 1010.73,-202.91 1010.73,-202.91zm3.78 1210.13c0,0 212.44,-786.13 889.87,-829.32l-1.26 585.5c-4.07,647.33 -395.73,934.85 -892.39,1142.2 -505.31,-211.66 -874.78,-483.59 -892.48,-1135.06l0.3 -594.59c738.66,52.04 895.96,831.27 895.96,831.27z"/>
    <path class="fil0" d="M2109.72 3989.04c-149.2,0 -270.16,-120.96 -270.16,-270.16 0,-69.04 25.9,-132.04 68.51,-179.79 -40.26,-23.35 -82.23,-44.07 -125.68,-61.91 -49.98,67.58 -79.54,151.19 -79.54,241.7 0,224.71 182.16,406.87 406.87,406.87 89.69,0 172.61,-29.02 239.86,-78.19 -17.6,-43.56 -38.08,-85.65 -61.2,-126.03 -47.62,42.02 -110.16,67.51 -178.66,67.51z"/>
    <path class="fil1" d="M1926.21 3718.89c0,101.35 82.16,183.52 183.51,183.52 51.59,0 98.21,-21.29 131.55,-55.56 -70.11,-101.33 -157.85,-189.55 -258.77,-260.22 -34.7,33.39 -56.3,80.3 -56.3,132.26z"/>
    <path class="fil0" d="M2803.18 3989.04c149.2,0 270.16,-120.96 270.16,-270.16 0,-69.04 -25.9,-132.04 -68.51,-179.79 40.26,-23.35 82.23,-44.07 125.68,-61.91 49.99,67.58 79.54,151.19 79.54,241.7 0,224.71 -182.16,406.87 -406.87,406.87 -89.69,0 -172.61,-29.02 -239.86,-78.19 17.6,-43.56 38.08,-85.65 61.2,-126.03 47.62,42.02 110.17,67.51 178.66,67.51z"/>
    <path class="fil1" d="M2986.69 3718.89c0,101.35 -82.17,183.52 -183.52,183.52 -51.59,0 -98.21,-21.29 -131.55,-55.56 70.11,-101.33 157.85,-189.55 258.77,-260.22 34.7,33.39 56.3,80.3 56.3,132.26z"/>
    <path class="fil1" d="M2440.54 4613.67c0,0 -16.43,-222.89 -117.21,-467.08 -60.33,26.89 -127.15,41.84 -197.47,41.84 -189.08,0 -352.91,-108.09 -433.09,-265.85l-0.06 105.04c15.31,549.12 310.52,773.97 747.82,952.38 429.8,-174.78 793.28,-412.76 796.81,-958.4l0.22 -102.49c-79.52,159.65 -244.37,269.32 -434.83,269.32 -72.53,0 -141.34,-15.91 -203.15,-44.42 -99.09,244.97 -159.05,469.66 -159.05,469.66z"/>
   </g>
   <g>
    <g>
     <path class="fil2 str0" d="M5820.46 5114.76c-21.3,0 -41.37,-2.06 -60.2,-6.07 -18.73,-4.01 -36.32,-9.98 -52.79,-18.01 -16.36,-8.13 -31.69,-18.11 -45.89,-30.15l0 0 38.28 -47.02 0 0c16.67,14.41 35.09,25.31 55.15,32.52 20.07,7.2 41.88,10.8 65.44,10.8 31.69,0 56.28,-5.87 73.78,-17.7 17.49,-11.94 26.24,-28.5 26.24,-49.8l0 -0.31c0,-16.67 -4.42,-29.43 -13.27,-38.28 -8.85,-8.85 -20.37,-15.43 -34.78,-19.76 -14.41,-4.32 -30.05,-7.82 -47.23,-10.7 -16.46,-2.78 -33.03,-6.07 -49.8,-9.88 -16.77,-3.81 -32.21,-9.88 -46.3,-18.01 -14.1,-8.13 -25.42,-19.86 -33.96,-35.09 -8.54,-15.23 -12.76,-35.7 -12.76,-61.22l0 -0.31c0,-40.75 13.58,-72.34 40.65,-94.77 27.17,-22.43 65.44,-33.65 114.94,-33.65 23.46,0 46.51,3.81 68.94,11.32 22.54,7.51 44.45,19.04 65.76,34.57l0 0 -34.99 48.78 0 0c-16.67,-12.45 -33.24,-21.71 -49.91,-27.68 -16.57,-6.07 -33.13,-9.06 -49.8,-9.06 -29.94,0 -53.3,5.97 -69.87,17.91 -16.57,11.94 -24.8,28.91 -24.8,50.83l0 0.31c0,16.46 4.74,29.02 14.41,37.66 9.67,8.64 22.33,15.02 37.87,19.14 15.54,4.12 32.31,8.03 50.21,11.63 16.06,3.19 32.11,7.1 48.16,11.63 16.16,4.43 30.77,11.01 43.94,19.55 13.17,8.54 23.67,20.27 31.59,35.09 7.93,14.92 11.94,34.26 11.94,58.24l0 0.62c0,40.33 -14.09,71.62 -42.19,93.74 -28.19,22.12 -67.71,33.13 -118.74,33.13z"/>
    </g>
    <g>
     <path id="_1" class="fil2 str0" d="M6454.24 5110.23l0 -438.35 61.54 0 0 438.35 -61.54 0zm-249.02 0l0 -438.35 61.54 0 0 438.35 -61.54 0zm38.28 -186.56l0 -58.55 243.36 0 0 58.55 -243.36 0z"/>
    </g>
    <g>
     <polygon id="_2" class="fil2 str0" points="6828.2,4671.88 6828.2,5110.23 6766.67,5110.23 6766.67,4671.88 "/>
    </g>
    <g>
     <path id="_3" class="fil2 str0" d="M7079.09 5110.23l0 -438.35 61.54 0 0 438.35 -61.54 0zm29.84 0l0 -58.45 251.8 0 0 58.45 -251.8 0zm0 -188.41l0 -58.44 218.56 0 0 58.44 -218.56 0zm0 -191.39l0 -58.55 251.8 0 0 58.55 -251.8 0z"/>
    </g>
    <g>
     <path id="_4" class="fil2 str0" d="M7590.53 5110.23l0 -438.35 61.54 0 0 438.35 -61.54 0zm30.77 0l0 -58.45 250.87 0 0 58.45 -250.87 0z"/>
    </g>
    <g>
     <path id="_5" class="fil2 str0" d="M8128.51 5110.23l0 -58.45 99.2 0c32.31,0 57.42,-8.44 75.11,-25.21 17.8,-16.77 26.76,-40.44 26.76,-71l0 -129.04c0,-30.56 -8.95,-54.23 -26.76,-71 -17.7,-16.77 -42.8,-25.11 -75.11,-25.11l-99.2 0 0 -58.55 97.34 0c53.1,0 94.05,13.79 123.17,41.16 29.02,27.48 43.52,66.06 43.52,115.97l0 124.2c0,33.13 -6.48,61.43 -19.55,84.79 -13.07,23.46 -32.11,41.37 -57.01,53.71 -24.9,12.35 -55.05,18.52 -90.45,18.52l-97.04 0zm-41.67 0l0 -438.35 61.54 0 0 438.35 -61.54 0z"/>
    </g>
    <path id="_6" class="fil3" d="M5820.46 5114.76c-21.3,0 -41.37,-2.06 -60.2,-6.07 -18.73,-4.01 -36.32,-9.98 -52.79,-18.01 -16.36,-8.13 -31.69,-18.11 -45.89,-30.15l0 0 38.28 -47.02 0 0c16.67,14.41 35.09,25.31 55.15,32.52 20.07,7.2 41.88,10.8 65.44,10.8 31.69,0 56.28,-5.87 73.78,-17.7 17.49,-11.94 26.24,-28.5 26.24,-49.8l0 -0.31c0,-16.67 -4.42,-29.43 -13.27,-38.28 -8.85,-8.85 -20.37,-15.43 -34.78,-19.76 -14.41,-4.32 -30.05,-7.82 -47.23,-10.7 -16.46,-2.78 -33.03,-6.07 -49.8,-9.88 -16.77,-3.81 -32.21,-9.88 -46.3,-18.01 -14.1,-8.13 -25.42,-19.86 -33.96,-35.09 -8.54,-15.23 -12.76,-35.7 -12.76,-61.22l0 -0.31c0,-40.75 13.58,-72.34 40.65,-94.77 27.17,-22.43 65.44,-33.65 114.94,-33.65 23.46,0 46.51,3.81 68.94,11.32 22.54,7.51 44.45,19.04 65.76,34.57l0 0 -34.99 48.78 0 0c-16.67,-12.45 -33.24,-21.71 -49.91,-27.68 -16.57,-6.07 -33.13,-9.06 -49.8,-9.06 -29.94,0 -53.3,5.97 -69.87,17.91 -16.57,11.94 -24.8,28.91 -24.8,50.83l0 0.31c0,16.46 4.74,29.02 14.41,37.66 9.67,8.64 22.33,15.02 37.87,19.14 15.54,4.12 32.31,8.03 50.21,11.63 16.06,3.19 32.11,7.1 48.16,11.63 16.16,4.43 30.77,11.01 43.94,19.55 13.17,8.54 23.67,20.27 31.59,35.09 7.93,14.92 11.94,34.26 11.94,58.24l0 0.62c0,40.33 -14.09,71.62 -42.19,93.74 -28.19,22.12 -67.71,33.13 -118.74,33.13z"/>
    <path id="_7" class="fil3" d="M6454.24 5110.23l0 -438.35 61.54 0 0 438.35 -61.54 0zm-249.02 0l0 -438.35 61.54 0 0 438.35 -61.54 0zm38.28 -186.56l0 -58.55 243.36 0 0 58.55 -243.36 0z"/>
    <polygon id="_8" class="fil3" points="6828.2,4671.88 6828.2,5110.23 6766.67,5110.23 6766.67,4671.88 "/>
    <path id="_9" class="fil3" d="M7079.09 5110.23l0 -438.35 61.54 0 0 438.35 -61.54 0zm29.84 0l0 -58.45 251.8 0 0 58.45 -251.8 0zm0 -188.41l0 -58.44 218.56 0 0 58.44 -218.56 0zm0 -191.39l0 -58.55 251.8 0 0 58.55 -251.8 0z"/>
    <path id="_10" class="fil3" d="M7590.53 5110.23l0 -438.35 61.54 0 0 438.35 -61.54 0zm30.77 0l0 -58.45 250.87 0 0 58.45 -250.87 0z"/>
    <path id="_11" class="fil3" d="M8128.51 5110.23l0 -58.45 99.2 0c32.31,0 57.42,-8.44 75.11,-25.21 17.8,-16.77 26.76,-40.44 26.76,-71l0 -129.04c0,-30.56 -8.95,-54.23 -26.76,-71 -17.7,-16.77 -42.8,-25.11 -75.11,-25.11l-99.2 0 0 -58.55 97.34 0c53.1,0 94.05,13.79 123.17,41.16 29.02,27.48 43.52,66.06 43.52,115.97l0 124.2c0,33.13 -6.48,61.43 -19.55,84.79 -13.07,23.46 -32.11,41.37 -57.01,53.71 -24.9,12.35 -55.05,18.52 -90.45,18.52l-97.04 0zm-41.67 0l0 -438.35 61.54 0 0 438.35 -61.54 0z"/>
    <polygon class="fil4" points="4114.11,4421.87 4114.11,3344 3927.64,3344 3927.64,3408.74 3781.84,3408.74 3781.84,3189.9 4608.5,3189.9 4608.5,3344 4292.28,3344 4292.28,4421.87 "/>
    <path id="_1_0" class="fil4" d="M4674.39 3747.37c0,-69.99 26.84,-126.71 80.23,-169.31 53.67,-42.61 123.94,-63.91 211.65,-63.91l129.75 0c87.43,0 157.98,21.3 211.37,63.91 53.67,42.61 80.23,99.32 80.23,169.31l0 162.13c0,35.69 -12.72,66.4 -37.9,91.57 -25.45,25.45 -56.16,38.18 -91.57,38.18l-405.31 0 0 149.12c0,23.8 10.24,43.16 30.71,57.55 20.47,14.66 48.14,21.85 82.72,21.85l356.61 0 0 24.35c0,35.69 -12.72,66.4 -38.18,91.57 -25.45,25.45 -55.89,38.18 -91.57,38.18l-226.86 0c-87.7,0 -157.98,-21.3 -211.65,-63.91 -53.39,-42.88 -80.23,-99.32 -80.23,-169.59l0 -441zm178.45 0l0 219.12 81.06 -81.06 273.89 0 0 -138.06c0,-23.52 -10.24,-42.88 -30.71,-57.54 -20.75,-14.39 -47.59,-21.86 -81.06,-21.86l-129.75 0c-34.58,0 -62.25,7.47 -82.72,21.86 -20.47,14.66 -30.71,34.03 -30.71,57.54z"/>
    <path id="_2_1" class="fil4" d="M6092.33 3667.97l-192.83 0c-34.58,0 -62.25,7.47 -82.72,21.86 -20.47,14.66 -30.71,34.03 -30.71,57.54l0 449.3c0,21.58 10.24,38.74 30.71,51.74 20.47,13 48.14,19.37 82.72,19.37l356.61 0 0 56.72c0,27.11 -9.41,50.07 -28.5,68.89 -18.81,19.09 -41.78,28.5 -68.89,28.5l-259.23 0c-88.54,0 -159.36,-21.3 -212.48,-63.91 -52.84,-42.88 -79.41,-99.32 -79.41,-169.59l0 -441c0,-69.99 26.56,-126.71 79.41,-169.31 53.12,-42.61 123.94,-63.91 212.48,-63.91l259.23 0c27.11,0 50.07,9.41 68.89,28.22 19.09,19.09 28.5,42.05 28.5,68.89l0 129.75 -163.78 0 0 -73.04z"/>
    <path id="_3_2" class="fil4" d="M6484.13 4421.87l0 -1264.35 178.17 0 0 437.68 81.06 -81.06 162.12 0c87.7,0 157.97,22.96 211.65,68.89 53.4,45.93 80.23,106.24 80.23,180.66l0 512.38 26.01 0 -16.32 145.8 -90.75 0c-28.22,0 -51.74,-9.41 -70.55,-28.5 -18.81,-18.81 -28.5,-41.78 -28.5,-68.89l0 -544.47c0,-33.48 -10.24,-60.59 -30.71,-81.06 -20.47,-20.75 -47.59,-30.99 -81.06,-30.99l-243.19 0 0 753.91 -178.17 0z"/>
    <path id="_4_3" class="fil4" d="M8706.92 4421.87l-231.84 -761.93 -68.06 0 16.32 -145.8 92.41 0c26.83,0 52.56,8.85 76.91,26.56 24.35,17.98 40.95,39.84 49.52,65.85l158.8 523.44 14.67 113.43 27.39 0 14.66 -113.43 126.43 -460.37 222.16 0 121.45 460.37 16.33 113.43 26 0 13 -113.43 187.85 -615.85 181.49 0 -275.56 907.73 -238.2 0 -116.75 -444.04 -17.7 -113.71 -24.35 0 -17.98 113.71 -111.77 444.04 -243.19 0z"/>
    <path id="_5_4" class="fil4" d="M10101.89 3157.53l0 1063.21c0,16.32 4.15,29.6 12.17,39.84 8.3,10.24 19.37,15.5 33.2,15.5l125.05 0 0 56.71c0,24.9 -8.85,45.93 -26,63.08 -17.43,17.43 -38.46,26.01 -63.35,26.01l-45.37 0c-63.63,0 -115.37,-18.26 -154.65,-55.06 -39.56,-36.8 -59.2,-85.49 -59.2,-146.08l0 -1063.21 178.17 0z"/>
    <path id="_6_5" class="fil4" d="M7635.92 4188.37c0,21.58 10.24,39.01 30.71,52.01 20.75,13 48.14,19.37 82.72,19.37l194.5 0c33.48,0 60.59,-6.37 81.06,-19.37 20.47,-13 30.98,-30.43 30.98,-52.01l0 -764.97c0,-21.58 -10.24,-39.01 -30.16,-52.01 -19.92,-13 -47.31,-19.37 -81.89,-19.37l-194.5 0c-34.58,0 -61.97,6.36 -82.72,19.37 -20.47,13 -30.71,30.43 -30.71,52.01l0 764.97zm-178.45 0l0 -764.97c0,-70.27 26.84,-126.71 80.23,-169.59 53.67,-42.61 124.22,-63.91 211.65,-63.91l194.5 0c87.7,0 158.25,21.3 211.65,63.91 53.4,42.88 80.23,99.32 80.23,169.59l0 764.97c0,70.27 -26.83,126.71 -80.23,169.59 -53.4,42.61 -123.94,63.91 -211.65,63.91l-194.5 0c-87.43,0 -157.97,-21.3 -211.65,-63.91 -53.39,-42.88 -80.23,-99.32 -80.23,-169.59z"/>
   </g>
   <path class="fil5" d="M1702.85 3718.88c0,-90.51 29.56,-174.11 79.54,-241.7 43.45,17.84 85.43,38.56 125.68,61.91 -42.61,47.76 -68.51,110.75 -68.51,179.79 0,149.2 120.96,270.16 270.16,270.16 68.5,0 131.04,-25.5 178.66,-67.51 23.12,40.38 43.6,82.47 61.2,126.03 -67.26,49.17 -150.17,78.19 -239.86,78.19 -224.7,0 -406.87,-182.16 -406.87,-406.87zm223.35 0c0,-51.96 21.59,-98.88 56.3,-132.26 100.92,70.67 188.65,158.88 258.77,260.22 -33.34,34.27 -79.96,55.56 -131.55,55.56 -101.35,0 -183.51,-82.17 -183.51,-183.52zm518.11 502.96c0,0 -157.3,-779.23 -895.96,-831.27l-0.3 594.59c17.7,651.46 387.17,923.4 892.48,1135.06 496.65,-207.35 888.31,-494.87 892.39,-1142.2l1.26 -585.5c-677.43,43.19 -889.87,829.32 -889.87,829.32zm-751.55 -299.27c80.17,157.76 244.01,265.85 433.09,265.85 70.31,0 137.14,-14.95 197.47,-41.84 100.78,244.19 117.21,467.08 117.21,467.08 0,0 59.96,-224.69 159.05,-469.66 61.8,28.51 130.62,44.42 203.15,44.42 190.46,0 355.31,-109.68 434.83,-269.32l-0.22 102.49c-3.53,545.64 -367,783.62 -796.81,958.4 -437.3,-178.41 -732.51,-403.26 -747.82,-952.38l0.06 -105.04zm978.85 -75.74c70.11,-101.33 157.85,-189.55 258.77,-260.22 34.7,33.39 56.3,80.3 56.3,132.26 0,101.35 -82.17,183.52 -183.52,183.52 -51.59,0 -98.21,-21.29 -131.55,-55.56zm131.55 142.2c149.2,0 270.16,-120.96 270.16,-270.16 0,-69.04 -25.9,-132.04 -68.51,-179.79 40.26,-23.35 82.23,-44.07 125.68,-61.91 49.99,67.58 79.54,151.19 79.54,241.7 0,224.71 -182.16,406.87 -406.87,406.87 -89.69,0 -172.61,-29.02 -239.86,-78.19 17.6,-43.56 38.08,-85.65 61.2,-126.03 47.62,42.02 110.17,67.51 178.66,67.51z"/>
  </g>
 </g>
</svg>