<?xml version="1.0" encoding="utf-8"?>
<!-- Generator: Adobe Illustrator 22.1.0, SVG Export Plug-In . SVG Version: 6.00 Build 0)  -->
<svg version="1.1" id="Layer_1" xmlns="http://www.w3.org/2000/svg" xmlns:xlink="http://www.w3.org/1999/xlink" x="0px" y="0px"
	 viewBox="0 0 287 54.2" style="enable-background:new 0 0 287 54.2;" xml:space="preserve">
<style type="text/css">
	.st0{fill:#30C1DF;}
	.st1{fill:#272D68;}
	.st2{fill:#262C68;}
</style>
<g>
	<g>
		<path class="st0" d="M80.1,28.4c0,0,0,1.4-2.2,1.5c0,0-0.5,0.1-0.4,1.3l0,1.8c0,0-0.1,0.5-1,0.8c0,0-0.2,0.2,0.1,0.5
			c0,0,0.5,0.6-0.4,1.8c-0.3,0.5-0.9,1-0.5,2.2c0,0,0.4,2.2-0.5,2.8c0,0-1,1.2-5,0.7c-1.4-0.2-4-0.8-5.5,1.1c0,0-3.7,7-4,8.7
			c0,0-6.2-11-13.8-12.9H36.8c-0.2,0-0.3-0.2-0.2-0.4l1.5-3.7c0.1-0.2,0.3-0.4,0.6-0.4h8.4c-0.1-0.7-0.3-1.4-0.6-2.2h-7.3
			c-0.2,0-0.3-0.2-0.2-0.4l1.5-3.7c0.1-0.2,0.3-0.4,0.6-0.4h2.8c-0.4-0.6-0.9-1.4-1.4-2.2h-7.2c-0.2,0-0.3-0.2-0.2-0.4l1.5-3.7
			c0.1-0.2,0.3-0.4,0.6-0.4h3.2C40.1,20.1,40,19.5,40,19c0,0,0-0.3-0.1-0.7h-8.7c-0.2,0-0.3-0.2-0.2-0.4l1.5-3.7
			c0.1-0.2,0.3-0.4,0.6-0.4h7.4c0.2-0.8,0.5-1.6,0.9-2.5H27.2c-0.2,0-0.3-0.2-0.2-0.4l1.5-3.7c0.1-0.2,0.3-0.4,0.6-0.4h15.4
			c0.1-0.1,0.2-0.2,0.3-0.3c0.5-0.6,1.1-1.2,1.7-1.7h-3c-0.2,0-0.3-0.2-0.2-0.4l1.5-3.7c0.1-0.2,0.3-0.4,0.6-0.4h14.7
			c0.3,0,0.5,0,0.8,0c3.6,0,9.2,0.8,13.6,5.4c2.6,2.8,4.6,6.3,4,12c-0.1,1.3-1.9,2.7-0.6,5.1C77.5,22.9,80.2,27.6,80.1,28.4z
			 M36.3,4.5c-0.1,0.2,0,0.4,0.2,0.4h3.7c0.2,0,0.5-0.2,0.6-0.4l1.5-3.7c0.1-0.2,0-0.4-0.2-0.4h-3.7c-0.2,0-0.5,0.2-0.6,0.4
			L36.3,4.5z M24.1,18c-0.1,0.2,0,0.4,0.2,0.4H28c0.2,0,0.5-0.2,0.6-0.4l1.5-3.7c0.1-0.2,0-0.4-0.2-0.4h-3.7c-0.2,0-0.5,0.2-0.6,0.4
			L24.1,18z M17.3,18c-0.1,0.2,0,0.4,0.2,0.4h3.7c0.2,0,0.5-0.2,0.6-0.4l1.5-3.7c0.1-0.2,0-0.4-0.2-0.4h-3.7c-0.2,0-0.5,0.2-0.6,0.4
			L17.3,18z M10.5,18c-0.1,0.2,0,0.4,0.2,0.4h3.7c0.2,0,0.5-0.2,0.6-0.4l1.5-3.7c0.1-0.2,0-0.4-0.2-0.4h-3.7c-0.2,0-0.5,0.2-0.6,0.4
			L10.5,18z M32.1,31.5c-0.1,0.2,0,0.4,0.2,0.4H36c0.2,0,0.5-0.2,0.6-0.4l1.5-3.7c0.1-0.2,0-0.4-0.2-0.4h-3.7
			c-0.2,0-0.5,0.2-0.6,0.4L32.1,31.5z M25.3,31.5c-0.1,0.2,0,0.4,0.2,0.4h3.7c0.2,0,0.5-0.2,0.6-0.4l1.5-3.7c0.1-0.2,0-0.4-0.2-0.4
			h-3.7c-0.2,0-0.5,0.2-0.6,0.4L25.3,31.5z M5,31.5c-0.1,0.2,0,0.4,0.2,0.4H9c0.2,0,0.5-0.2,0.6-0.4l1.5-3.7c0.1-0.2,0-0.4-0.2-0.4
			H7.2c-0.2,0-0.5,0.2-0.6,0.4L5,31.5z M29.3,38.3c-0.1,0.2,0,0.4,0.2,0.4h3.7c0.2,0,0.5-0.2,0.6-0.4l1.5-3.7c0.1-0.2,0-0.4-0.2-0.4
			h-3.8c-0.2,0-0.5,0.2-0.6,0.4L29.3,38.3z M22.6,38.3c-0.1,0.2,0,0.4,0.2,0.4h3.7c0.2,0,0.5-0.2,0.6-0.4l1.5-3.7
			c0.1-0.2,0-0.4-0.2-0.4h-3.7c-0.2,0-0.5,0.2-0.6,0.4L22.6,38.3z M15.8,38.3c-0.1,0.2,0,0.4,0.2,0.4h3.7c0.2,0,0.5-0.2,0.6-0.4
			l1.5-3.7c0.1-0.2,0-0.4-0.2-0.4h-3.7c-0.2,0-0.5,0.2-0.6,0.4L15.8,38.3z M11.8,31.5c-0.1,0.2,0,0.4,0.2,0.4h3.7
			c0.2,0,0.5-0.2,0.6-0.4l1.5-3.7c0.1-0.2,0-0.4-0.2-0.4h-3.7c-0.2,0-0.5,0.2-0.6,0.4L11.8,31.5z M29.1,4.5c-0.1,0.2,0,0.4,0.2,0.4
			H33c0.2,0,0.5-0.2,0.6-0.4l1.5-3.7c0.1-0.2,0-0.4-0.2-0.4h-3.7c-0.2,0-0.5,0.2-0.6,0.4L29.1,4.5z M15.7,4.5
			c-0.1,0.2,0,0.4,0.2,0.4h3.7c0.2,0,0.5-0.2,0.6-0.4l1.5-3.7c0.1-0.2,0-0.4-0.2-0.4h-3.7c-0.2,0-0.5,0.2-0.6,0.4L15.7,4.5z M1,24.7
			C1,25,1,25.2,1.3,25.2H5c0.2,0,0.5-0.2,0.6-0.4l1.5-3.7c0.1-0.2,0-0.4-0.2-0.4H3.1c-0.2,0-0.5,0.2-0.6,0.4L1,24.7z M22.2,24.7
			c-0.1,0.2,0,0.4,0.2,0.4h3.7c0.2,0,0.5-0.2,0.6-0.4l1.5-3.7c0.1-0.2,0-0.4-0.2-0.4h-3.7c-0.2,0-0.5,0.2-0.6,0.4L22.2,24.7z"/>
		<path class="st1" d="M252.9,53.2c0.1,0,0.2,0,0.3,0c0.1,0,0.2,0,0.2,0c0.1,0,0.2,0,0.2-0.1c0.1,0,0.2-0.1,0.2-0.2
			c0.1-0.1,0.2-0.3,0.2-0.5c0.1-0.2,0.2-0.5,0.3-0.8L252,46h1l1.9,4.7l1.7-4.7h0.9l-2.7,7.1c-0.1,0.3-0.3,0.5-0.5,0.6
			c-0.2,0.2-0.6,0.3-0.9,0.3c-0.1,0-0.1,0-0.2,0s-0.2,0-0.3,0L252.9,53.2L252.9,53.2z M251.3,51.6h-0.9v-3.2c0-0.6-0.1-1-0.3-1.3
			c-0.2-0.3-0.5-0.4-0.8-0.4c-0.2,0-0.4,0-0.6,0.1c-0.2,0.1-0.4,0.2-0.5,0.3c-0.2,0.1-0.3,0.3-0.5,0.5c-0.1,0.2-0.2,0.4-0.3,0.6v3.4
			h-0.9V46h0.9v1.2c0.2-0.4,0.5-0.7,0.9-0.9c0.4-0.2,0.9-0.3,1.4-0.3c0.3,0,0.6,0.1,0.8,0.2c0.2,0.1,0.4,0.3,0.5,0.5
			c0.1,0.2,0.2,0.5,0.3,0.8c0,0.3,0.1,0.6,0.1,0.9L251.3,51.6L251.3,51.6z M242.2,51c0.3,0,0.6-0.1,0.9-0.2c0.3-0.1,0.5-0.3,0.6-0.5
			c0.2-0.2,0.2-0.3,0.2-0.4v-0.8c-0.5-0.2-0.9-0.3-1.4-0.3c-0.5,0-0.9,0.1-1.1,0.3c-0.3,0.2-0.5,0.5-0.5,0.8c0,0.2,0,0.3,0.1,0.5
			c0.1,0.2,0.2,0.3,0.3,0.3c0.1,0.1,0.2,0.2,0.4,0.2C241.8,51,242,51,242.2,51z M241.9,51.8c-0.3,0-0.5,0-0.7-0.2
			c-0.2-0.1-0.4-0.2-0.6-0.4c-0.2-0.2-0.3-0.3-0.4-0.5c-0.1-0.2-0.2-0.5-0.2-0.7c0-0.3,0.1-0.5,0.2-0.7c0.1-0.2,0.3-0.4,0.5-0.5
			c0.2-0.2,0.5-0.3,0.8-0.3c0.3-0.1,0.6-0.1,0.9-0.1c0.3,0,0.5,0,0.8,0.1c0.3,0,0.5,0.1,0.7,0.2v-0.5c0-0.5-0.1-0.8-0.4-1.1
			c-0.3-0.3-0.6-0.4-1.1-0.4c-0.6,0-1.2,0.2-1.8,0.6l-0.3-0.6c0.7-0.5,1.4-0.7,2.2-0.7s1.3,0.2,1.7,0.6c0.4,0.4,0.6,0.9,0.6,1.7v2.3
			c0,0.2,0.1,0.3,0.3,0.3v0.8c-0.1,0-0.2,0-0.2,0c-0.1,0-0.2,0-0.2,0c-0.2,0-0.3,0-0.5-0.2c-0.1-0.1-0.2-0.2-0.2-0.4l0-0.4
			c-0.3,0.3-0.6,0.6-0.9,0.8C242.8,51.6,242.4,51.8,241.9,51.8z M236.5,50.9c0.3,0,0.5-0.1,0.8-0.2c0.2-0.1,0.4-0.3,0.6-0.5
			c0.2-0.2,0.3-0.4,0.4-0.7c0.1-0.3,0.1-0.5,0.1-0.8s0-0.5-0.2-0.8c-0.1-0.3-0.2-0.5-0.4-0.7c-0.2-0.2-0.4-0.3-0.6-0.5
			s-0.5-0.2-0.8-0.2c-0.2,0-0.3,0-0.5,0.1c-0.2,0.1-0.3,0.2-0.5,0.3c-0.2,0.1-0.3,0.2-0.4,0.4c-0.1,0.2-0.2,0.3-0.2,0.5v1.6
			c0.1,0.2,0.2,0.3,0.3,0.5c0.1,0.2,0.3,0.3,0.4,0.4c0.2,0.1,0.3,0.2,0.5,0.3C236.1,50.9,236.3,50.9,236.5,50.9z M236.8,51.8
			c-0.5,0-0.9-0.1-1.2-0.3c-0.3-0.2-0.6-0.5-0.8-0.9v3.4h-0.9V46h0.8v1.1c0.2-0.3,0.5-0.6,0.9-0.8c0.3-0.2,0.8-0.3,1.2-0.3
			c0.4,0,0.7,0.1,1.1,0.2c0.3,0.2,0.6,0.4,0.8,0.6c0.2,0.3,0.4,0.6,0.6,0.9c0.1,0.3,0.2,0.7,0.2,1.1c0,0.4-0.1,0.8-0.2,1.1
			c-0.1,0.3-0.3,0.6-0.5,0.9c-0.2,0.3-0.5,0.5-0.8,0.6C237.5,51.7,237.2,51.8,236.8,51.8z M232.3,51.6h-0.9v-3.2
			c0-0.6-0.1-1-0.3-1.3s-0.5-0.4-0.8-0.4c-0.4,0-0.7,0.2-1,0.4c-0.3,0.3-0.5,0.6-0.6,1.1v3.4h-0.9v-3.2c0-0.6-0.1-1-0.3-1.3
			c-0.2-0.3-0.5-0.4-0.8-0.4c-0.4,0-0.7,0.2-1,0.4c-0.3,0.3-0.5,0.6-0.6,1.1v3.4h-0.9V46h0.9v1.2c0.2-0.4,0.5-0.7,0.9-0.9
			c0.4-0.2,0.8-0.3,1.2-0.3c0.5,0,0.8,0.1,1.1,0.4c0.3,0.3,0.5,0.6,0.5,1c0.5-0.9,1.2-1.4,2.1-1.4c0.3,0,0.6,0.1,0.8,0.2
			c0.2,0.1,0.4,0.3,0.5,0.5c0.1,0.2,0.2,0.5,0.3,0.8c0.1,0.3,0.1,0.6,0.1,0.9L232.3,51.6L232.3,51.6z M218,48.9c0,0.3,0,0.6,0.2,0.8
			c0.1,0.3,0.2,0.5,0.4,0.6s0.4,0.3,0.6,0.5s0.5,0.2,0.7,0.2s0.5,0,0.7-0.2c0.2-0.1,0.4-0.3,0.6-0.5c0.2-0.2,0.3-0.4,0.4-0.6
			c0.1-0.3,0.2-0.5,0.2-0.8c0-0.3,0-0.6-0.2-0.8c-0.1-0.3-0.2-0.5-0.4-0.7c-0.2-0.2-0.4-0.3-0.6-0.5s-0.5-0.2-0.7-0.2
			s-0.5,0-0.7,0.2c-0.2,0.1-0.4,0.3-0.6,0.5c-0.2,0.2-0.3,0.4-0.4,0.7C218,48.3,218,48.6,218,48.9z M219.9,51.8
			c-0.4,0-0.8-0.1-1.1-0.2s-0.6-0.4-0.9-0.6s-0.5-0.6-0.6-0.9c-0.2-0.3-0.2-0.7-0.2-1.1s0.1-0.8,0.2-1.1c0.2-0.3,0.3-0.6,0.6-0.9
			s0.5-0.5,0.9-0.6c0.3-0.2,0.7-0.2,1.1-0.2s0.8,0.1,1.1,0.2c0.3,0.2,0.6,0.4,0.9,0.6c0.2,0.3,0.5,0.6,0.6,0.9
			c0.2,0.3,0.2,0.7,0.2,1.1s-0.1,0.8-0.2,1.1c-0.2,0.3-0.3,0.6-0.6,0.9c-0.3,0.3-0.6,0.5-0.9,0.6C220.7,51.7,220.3,51.8,219.9,51.8z
			 M209.8,47.8c0-0.5,0.1-0.9,0.2-1.4c0.2-0.5,0.4-0.9,0.7-1.2c0.3-0.4,0.7-0.6,1.1-0.9s0.9-0.3,1.5-0.3c0.7,0,1.3,0.2,1.7,0.5
			s0.8,0.7,1.1,1.2l-0.8,0.5c-0.1-0.2-0.3-0.5-0.4-0.6c-0.2-0.2-0.3-0.3-0.5-0.4c-0.2-0.1-0.4-0.2-0.6-0.2c-0.2,0-0.4-0.1-0.6-0.1
			c-0.4,0-0.8,0.1-1.1,0.3c-0.3,0.2-0.6,0.4-0.8,0.7c-0.2,0.3-0.4,0.6-0.5,0.9c-0.1,0.3-0.2,0.7-0.2,1.1c0,0.4,0.1,0.8,0.2,1.1
			c0.1,0.4,0.3,0.7,0.6,0.9c0.2,0.3,0.5,0.5,0.8,0.7c0.3,0.2,0.7,0.2,1.1,0.2c0.2,0,0.4,0,0.6-0.1c0.2,0,0.4-0.1,0.6-0.2
			s0.4-0.3,0.5-0.4c0.2-0.2,0.3-0.4,0.4-0.6l0.8,0.5c-0.1,0.3-0.3,0.5-0.5,0.8c-0.2,0.2-0.5,0.4-0.8,0.6c-0.3,0.2-0.6,0.3-0.9,0.3
			c-0.3,0.1-0.6,0.1-0.9,0.1c-0.5,0-1-0.1-1.4-0.3c-0.5-0.2-0.8-0.5-1.1-0.9c-0.3-0.4-0.6-0.8-0.7-1.3
			C209.8,48.7,209.8,48.3,209.8,47.8z M201.1,48.8c0-0.4,0.1-0.8,0.2-1.1c0.2-0.3,0.3-0.6,0.6-0.9c0.3-0.3,0.5-0.5,0.9-0.6
			c0.3-0.2,0.7-0.2,1.2-0.2c0.6,0,1,0.1,1.4,0.4c0.4,0.2,0.7,0.6,0.9,1l-0.9,0.3c-0.2-0.3-0.3-0.5-0.6-0.6c-0.3-0.2-0.5-0.2-0.9-0.2
			c-0.3,0-0.5,0-0.7,0.2c-0.2,0.1-0.4,0.3-0.6,0.4c-0.2,0.2-0.3,0.4-0.4,0.6c-0.1,0.3-0.2,0.5-0.2,0.8s0,0.6,0.2,0.8
			c0.1,0.3,0.2,0.5,0.4,0.7c0.2,0.2,0.4,0.3,0.6,0.5c0.2,0.1,0.5,0.2,0.7,0.2c0.2,0,0.3,0,0.5-0.1c0.2,0,0.3-0.1,0.5-0.2
			c0.1-0.1,0.3-0.2,0.3-0.3c0.1-0.1,0.2-0.2,0.2-0.3l0.9,0.3c-0.1,0.2-0.2,0.4-0.3,0.6c-0.2,0.2-0.3,0.3-0.5,0.5
			c-0.2,0.1-0.5,0.2-0.7,0.3c-0.3,0.1-0.5,0.1-0.8,0.1c-0.4,0-0.8-0.1-1.1-0.2c-0.3-0.2-0.6-0.4-0.9-0.6s-0.5-0.6-0.6-0.9
			C201.1,49.6,201.1,49.2,201.1,48.8z M198.4,43.8h0.9v6.4c0,0.2,0,0.4,0.2,0.5s0.3,0.2,0.5,0.2c0.1,0,0.2,0,0.3,0
			c0.1,0,0.2,0,0.3-0.1l0.2,0.8c-0.2,0.1-0.3,0.1-0.6,0.2c-0.2,0-0.4,0.1-0.6,0.1c-0.4,0-0.6-0.1-0.9-0.3c-0.2-0.2-0.3-0.5-0.3-0.9
			L198.4,43.8L198.4,43.8z M194.4,50.9c0.3,0,0.5-0.1,0.8-0.2c0.2-0.1,0.4-0.3,0.6-0.5c0.2-0.2,0.3-0.4,0.4-0.7
			c0.1-0.3,0.1-0.5,0.1-0.8s0-0.5-0.2-0.8c-0.1-0.3-0.2-0.5-0.4-0.7c-0.2-0.2-0.4-0.3-0.6-0.5s-0.5-0.2-0.8-0.2
			c-0.2,0-0.3,0-0.5,0.1c-0.2,0.1-0.3,0.2-0.5,0.3c-0.2,0.1-0.3,0.2-0.4,0.4c-0.1,0.2-0.2,0.3-0.2,0.5v1.6c0.1,0.2,0.2,0.3,0.3,0.5
			c0.1,0.2,0.3,0.3,0.4,0.4c0.2,0.1,0.3,0.2,0.5,0.3C194,50.9,194.2,50.9,194.4,50.9z M194.7,51.8c-0.5,0-0.9-0.1-1.2-0.3
			c-0.3-0.2-0.6-0.5-0.8-0.9v3.4h-0.9V46h0.8v1.1c0.2-0.3,0.5-0.6,0.9-0.8c0.3-0.2,0.8-0.3,1.2-0.3c0.4,0,0.7,0.1,1.1,0.2
			c0.3,0.2,0.6,0.4,0.8,0.6c0.2,0.3,0.4,0.6,0.6,0.9c0.1,0.3,0.2,0.7,0.2,1.1c0,0.4-0.1,0.8-0.2,1.1c-0.1,0.3-0.3,0.6-0.5,0.9
			c-0.2,0.3-0.5,0.5-0.8,0.6C195.4,51.7,195.1,51.8,194.7,51.8z M185,50.9c0.3,0,0.5-0.1,0.8-0.2c0.2-0.1,0.4-0.3,0.6-0.5
			c0.2-0.2,0.3-0.4,0.4-0.7c0.1-0.3,0.1-0.5,0.1-0.8s0-0.5-0.2-0.8c-0.1-0.3-0.2-0.5-0.4-0.7c-0.2-0.2-0.4-0.3-0.6-0.5
			s-0.5-0.2-0.8-0.2c-0.2,0-0.3,0-0.5,0.1c-0.2,0.1-0.3,0.2-0.5,0.3c-0.2,0.1-0.3,0.2-0.4,0.4c-0.1,0.2-0.2,0.3-0.2,0.5v1.6
			c0.1,0.2,0.2,0.3,0.3,0.5c0.1,0.2,0.3,0.3,0.4,0.4c0.2,0.1,0.3,0.2,0.5,0.3C184.6,50.9,184.8,50.9,185,50.9z M185.3,51.8
			c-0.5,0-0.9-0.1-1.2-0.3c-0.3-0.2-0.6-0.5-0.8-0.9v3.4h-0.9V46h0.8v1.1c0.2-0.3,0.5-0.6,0.9-0.8c0.3-0.2,0.8-0.3,1.2-0.3
			c0.4,0,0.7,0.1,1.1,0.2c0.3,0.2,0.6,0.4,0.8,0.6c0.2,0.3,0.4,0.6,0.6,0.9c0.1,0.3,0.2,0.7,0.2,1.1c0,0.4-0.1,0.8-0.2,1.1
			c-0.1,0.3-0.3,0.6-0.5,0.9c-0.2,0.3-0.5,0.5-0.8,0.6C186,51.7,185.6,51.8,185.3,51.8z M177.5,51.8c-0.6,0-1-0.2-1.3-0.6
			c-0.3-0.4-0.5-1-0.5-1.7V46h0.9v3.2c0,1.1,0.4,1.7,1.2,1.7c0.4,0,0.8-0.1,1.1-0.4c0.3-0.2,0.6-0.6,0.8-1V46h0.9v4.4
			c0,0.2,0.1,0.3,0.3,0.3v0.8c-0.1,0-0.2,0-0.3,0c-0.1,0-0.1,0-0.2,0c-0.2,0-0.3,0-0.5-0.2c-0.1-0.1-0.2-0.3-0.2-0.4l0-0.6
			c-0.3,0.4-0.6,0.8-1,1C178.5,51.6,178,51.8,177.5,51.8z M169.9,48.9c0,0.3,0,0.6,0.2,0.8c0.1,0.3,0.2,0.5,0.4,0.6
			c0.2,0.2,0.4,0.3,0.6,0.5s0.5,0.2,0.7,0.2s0.5,0,0.7-0.2c0.2-0.1,0.4-0.3,0.6-0.5c0.2-0.2,0.3-0.4,0.4-0.6
			c0.1-0.3,0.2-0.5,0.2-0.8c0-0.3,0-0.6-0.2-0.8c-0.1-0.3-0.2-0.5-0.4-0.7c-0.2-0.2-0.4-0.3-0.6-0.5s-0.5-0.2-0.7-0.2
			s-0.5,0-0.7,0.2c-0.2,0.1-0.4,0.3-0.6,0.5c-0.2,0.2-0.3,0.4-0.4,0.7C170,48.3,169.9,48.6,169.9,48.9z M171.8,51.8
			c-0.4,0-0.8-0.1-1.1-0.2s-0.6-0.4-0.9-0.6s-0.5-0.6-0.6-0.9c-0.2-0.3-0.2-0.7-0.2-1.1s0.1-0.8,0.2-1.1c0.2-0.3,0.3-0.6,0.6-0.9
			c0.2-0.3,0.5-0.5,0.9-0.6s0.7-0.2,1.1-0.2s0.8,0.1,1.1,0.2c0.3,0.2,0.6,0.4,0.9,0.6c0.2,0.3,0.5,0.6,0.6,0.9
			c0.2,0.3,0.2,0.7,0.2,1.1s-0.1,0.8-0.2,1.1c-0.2,0.3-0.3,0.6-0.6,0.9c-0.3,0.3-0.6,0.5-0.9,0.6C172.6,51.7,172.2,51.8,171.8,51.8z
			 M168.5,46.9c-0.5,0-0.9,0.2-1.3,0.4c-0.4,0.2-0.6,0.5-0.8,0.9v3.5h-0.9V46h0.9v1.3c0.2-0.4,0.5-0.7,0.8-0.9
			c0.3-0.2,0.6-0.4,1-0.4c0.1,0,0.1,0,0.2,0c0,0,0.1,0,0.1,0V46.9z M163.4,50.6c-0.7,0.7-1.4,1.1-2.3,1.1c-0.5,0-1-0.1-1.4-0.3
			c-0.4-0.2-0.8-0.5-1.1-0.9c-0.3-0.4-0.6-0.8-0.8-1.3c-0.2-0.5-0.3-0.9-0.3-1.4c0-0.5,0.1-1,0.3-1.5c0.2-0.5,0.4-0.9,0.7-1.2
			c0.3-0.3,0.7-0.6,1.1-0.8c0.4-0.2,0.9-0.3,1.4-0.3c0.7,0,1.3,0.2,1.8,0.5c0.5,0.3,0.8,0.7,1.1,1.2l-0.7,0.5
			c-0.2-0.5-0.5-0.8-0.9-1s-0.8-0.3-1.3-0.3c-0.4,0-0.7,0.1-1.1,0.3c-0.3,0.2-0.6,0.4-0.8,0.7c-0.2,0.3-0.4,0.6-0.5,0.9
			c-0.1,0.4-0.2,0.7-0.2,1.1s0.1,0.8,0.2,1.1c0.2,0.4,0.3,0.7,0.6,0.9c0.2,0.3,0.5,0.5,0.8,0.6c0.3,0.2,0.7,0.2,1.1,0.2
			c0.8,0,1.6-0.4,2.2-1.2v-1.1h-1.6v-0.7h2.5v3.8h-0.8V50.6z M154.5,46.9c-0.5,0-0.9,0.2-1.3,0.4c-0.4,0.2-0.6,0.5-0.8,0.9v3.5h-0.9
			V46h0.9v1.3c0.2-0.4,0.5-0.7,0.8-0.9c0.3-0.2,0.6-0.4,1-0.4c0.1,0,0.1,0,0.2,0c0,0,0.1,0,0.1,0V46.9z M149.6,48.4
			c0-0.3-0.1-0.5-0.2-0.7c-0.1-0.2-0.3-0.4-0.4-0.6c-0.2-0.2-0.4-0.3-0.6-0.4c-0.2-0.1-0.5-0.2-0.7-0.2c-0.3,0-0.5,0-0.7,0.2
			c-0.2,0.1-0.4,0.2-0.6,0.4c-0.2,0.2-0.3,0.3-0.4,0.6c-0.1,0.2-0.2,0.5-0.2,0.7H149.6z M147.7,51.8c-0.4,0-0.8-0.1-1.1-0.2
			s-0.6-0.4-0.9-0.6c-0.3-0.3-0.5-0.6-0.6-0.9c-0.2-0.3-0.2-0.7-0.2-1.1c0-0.4,0.1-0.8,0.2-1.1c0.2-0.3,0.3-0.6,0.6-0.9
			c0.3-0.3,0.6-0.5,0.9-0.6c0.3-0.2,0.7-0.2,1.2-0.2c0.4,0,0.8,0.1,1.1,0.2c0.3,0.2,0.6,0.4,0.9,0.6c0.2,0.3,0.4,0.6,0.6,0.9
			c0.1,0.3,0.2,0.7,0.2,1.1c0,0.1,0,0.2,0,0.2c0,0.1,0,0.1,0,0.2h-4.6c0,0.3,0.1,0.5,0.2,0.8c0.1,0.2,0.2,0.4,0.4,0.6
			c0.2,0.2,0.4,0.3,0.6,0.4c0.2,0.1,0.5,0.2,0.7,0.2c0.2,0,0.3,0,0.5-0.1c0.2,0,0.3-0.1,0.5-0.2s0.3-0.2,0.4-0.3
			c0.1-0.1,0.2-0.2,0.3-0.4l0.8,0.2c-0.1,0.2-0.2,0.4-0.4,0.6s-0.3,0.3-0.6,0.5c-0.2,0.1-0.5,0.2-0.7,0.3
			C148.2,51.7,147.9,51.8,147.7,51.8z M144.3,51.4c-0.1,0-0.1,0.1-0.2,0.1c-0.1,0-0.2,0.1-0.3,0.1c-0.1,0-0.2,0.1-0.4,0.1
			c-0.2,0-0.3,0-0.4,0c-0.3,0-0.6-0.1-0.9-0.3c-0.3-0.2-0.4-0.5-0.4-0.9v-3.8h-0.8v-0.8h0.8v-1.9h0.9v1.9h1.3v0.8h-1.3v3.5
			c0,0.2,0.1,0.3,0.2,0.5c0.1,0.1,0.3,0.2,0.4,0.2c0.2,0,0.3,0,0.5-0.1c0.2-0.1,0.3-0.1,0.3-0.2L144.3,51.4z M137.2,51
			c0.3,0,0.6-0.1,0.9-0.2c0.3-0.1,0.5-0.3,0.6-0.5c0.2-0.2,0.2-0.3,0.2-0.4v-0.8c-0.5-0.2-0.9-0.3-1.4-0.3c-0.5,0-0.9,0.1-1.1,0.3
			c-0.3,0.2-0.5,0.5-0.5,0.8c0,0.2,0,0.3,0.1,0.5c0.1,0.2,0.2,0.3,0.3,0.3c0.1,0.1,0.2,0.2,0.4,0.2C136.8,51,137,51,137.2,51z
			 M136.9,51.8c-0.3,0-0.5,0-0.7-0.2c-0.2-0.1-0.4-0.2-0.6-0.4c-0.2-0.2-0.3-0.3-0.4-0.5c-0.1-0.2-0.2-0.5-0.2-0.7
			c0-0.3,0.1-0.5,0.2-0.7c0.1-0.2,0.3-0.4,0.5-0.5c0.2-0.2,0.5-0.3,0.8-0.3c0.3-0.1,0.6-0.1,0.9-0.1c0.3,0,0.5,0,0.8,0.1
			c0.3,0,0.5,0.1,0.7,0.2v-0.5c0-0.5-0.1-0.8-0.4-1.1c-0.3-0.3-0.6-0.4-1.1-0.4c-0.6,0-1.2,0.2-1.8,0.6l-0.3-0.6
			c0.7-0.5,1.4-0.7,2.2-0.7s1.3,0.2,1.7,0.6c0.4,0.4,0.6,0.9,0.6,1.7v2.3c0,0.2,0.1,0.3,0.3,0.3v0.8c-0.1,0-0.2,0-0.2,0
			c-0.1,0-0.2,0-0.2,0c-0.2,0-0.3,0-0.5-0.2c-0.1-0.1-0.2-0.2-0.2-0.4l0-0.4c-0.3,0.3-0.6,0.6-0.9,0.8
			C137.8,51.6,137.4,51.8,136.9,51.8z M133.8,46h0.9l-2.4,5.6h-0.8l-1.1-2.7l-1.1,2.7h-0.8l-2.4-5.6h0.9l1.9,4.7l0.9-2.3l-0.9-2.3
			h0.8l0.7,1.8l0.7-1.8h0.8l-0.9,2.3l0.9,2.3L133.8,46z M125.9,46.9c-0.5,0-0.9,0.2-1.3,0.4c-0.4,0.2-0.6,0.5-0.8,0.9v3.5h-0.9V46
			h0.9v1.3c0.2-0.4,0.5-0.7,0.8-0.9c0.3-0.2,0.6-0.4,1-0.4c0.1,0,0.1,0,0.2,0c0,0,0.1,0,0.1,0V46.9z M118.6,51
			c0.3,0,0.6-0.1,0.9-0.2c0.3-0.1,0.5-0.3,0.6-0.5c0.2-0.2,0.2-0.3,0.2-0.4v-0.8c-0.5-0.2-0.9-0.3-1.4-0.3c-0.5,0-0.9,0.1-1.1,0.3
			c-0.3,0.2-0.5,0.5-0.5,0.8c0,0.2,0,0.3,0.1,0.5c0.1,0.2,0.2,0.3,0.3,0.3c0.1,0.1,0.2,0.2,0.4,0.2C118.3,51,118.5,51,118.6,51z
			 M118.4,51.8c-0.3,0-0.5,0-0.7-0.2c-0.2-0.1-0.4-0.2-0.6-0.4c-0.2-0.2-0.3-0.3-0.4-0.5c-0.1-0.2-0.2-0.5-0.2-0.7
			c0-0.3,0.1-0.5,0.2-0.7c0.1-0.2,0.3-0.4,0.5-0.5c0.2-0.2,0.5-0.3,0.8-0.3c0.3-0.1,0.6-0.1,0.9-0.1c0.3,0,0.5,0,0.8,0.1
			c0.3,0,0.5,0.1,0.7,0.2v-0.5c0-0.5-0.1-0.8-0.4-1.1c-0.3-0.3-0.6-0.4-1.1-0.4c-0.6,0-1.2,0.2-1.8,0.6l-0.3-0.6
			c0.7-0.5,1.4-0.7,2.2-0.7c0.7,0,1.3,0.2,1.7,0.6c0.4,0.4,0.6,0.9,0.6,1.7v2.3c0,0.2,0.1,0.3,0.3,0.3v0.8c-0.1,0-0.2,0-0.2,0
			c-0.1,0-0.2,0-0.2,0c-0.2,0-0.3,0-0.5-0.2c-0.1-0.1-0.2-0.2-0.2-0.4l0-0.4c-0.3,0.3-0.6,0.6-0.9,0.8
			C119.3,51.6,118.8,51.8,118.4,51.8z M115,48.4c0-0.3-0.1-0.5-0.2-0.7c-0.1-0.2-0.3-0.4-0.4-0.6c-0.2-0.2-0.4-0.3-0.6-0.4
			c-0.2-0.1-0.5-0.2-0.7-0.2c-0.3,0-0.5,0-0.7,0.2c-0.2,0.1-0.4,0.2-0.6,0.4c-0.2,0.2-0.3,0.3-0.4,0.6c-0.1,0.2-0.2,0.5-0.2,0.7H115
			z M113.1,51.8c-0.4,0-0.8-0.1-1.1-0.2c-0.3-0.2-0.6-0.4-0.9-0.6c-0.3-0.3-0.5-0.6-0.6-0.9c-0.2-0.3-0.2-0.7-0.2-1.1
			c0-0.4,0.1-0.8,0.2-1.1c0.2-0.3,0.3-0.6,0.6-0.9c0.3-0.3,0.6-0.5,0.9-0.6c0.3-0.2,0.7-0.2,1.2-0.2c0.4,0,0.8,0.1,1.1,0.2
			c0.3,0.2,0.6,0.4,0.9,0.6c0.2,0.3,0.4,0.6,0.6,0.9c0.1,0.3,0.2,0.7,0.2,1.1c0,0.1,0,0.2,0,0.2c0,0.1,0,0.1,0,0.2h-4.6
			c0,0.3,0.1,0.5,0.2,0.8c0.1,0.2,0.2,0.4,0.4,0.6c0.2,0.2,0.4,0.3,0.6,0.4c0.2,0.1,0.5,0.2,0.7,0.2c0.2,0,0.3,0,0.5-0.1
			c0.2,0,0.3-0.1,0.5-0.2c0.2-0.1,0.3-0.2,0.4-0.3c0.1-0.1,0.2-0.2,0.3-0.4l0.8,0.2c-0.1,0.2-0.2,0.4-0.4,0.6
			c-0.2,0.2-0.3,0.3-0.6,0.5c-0.2,0.1-0.5,0.2-0.7,0.3C113.6,51.7,113.4,51.8,113.1,51.8z M109.1,51.6h-0.9v-3.2
			c0-0.6-0.1-1-0.3-1.3c-0.2-0.3-0.5-0.4-0.9-0.4c-0.2,0-0.4,0-0.6,0.1c-0.2,0.1-0.3,0.2-0.5,0.3c-0.2,0.1-0.3,0.3-0.4,0.5
			c-0.1,0.2-0.2,0.4-0.3,0.6v3.4h-0.9v-7.8h0.9v3.4c0.2-0.4,0.5-0.7,0.9-0.9c0.4-0.2,0.8-0.3,1.3-0.3c0.3,0,0.6,0.1,0.8,0.2
			s0.4,0.3,0.5,0.5c0.2,0.2,0.2,0.5,0.3,0.8s0.1,0.6,0.1,0.9L109.1,51.6L109.1,51.6z M102.4,45.6c-0.1-0.1-0.2-0.2-0.3-0.3
			c-0.2-0.1-0.3-0.2-0.5-0.3c-0.2-0.1-0.4-0.2-0.6-0.2c-0.2,0-0.4-0.1-0.6-0.1c-0.6,0-1,0.1-1.3,0.3c-0.3,0.2-0.4,0.5-0.4,0.9
			c0,0.2,0,0.4,0.1,0.5c0.1,0.2,0.2,0.3,0.4,0.3c0.2,0.1,0.4,0.2,0.6,0.3c0.3,0.1,0.5,0.2,0.9,0.2c0.4,0.1,0.8,0.2,1.1,0.3
			c0.3,0.1,0.6,0.3,0.8,0.4c0.2,0.2,0.4,0.4,0.5,0.6c0.1,0.2,0.2,0.5,0.2,0.9c0,0.4-0.1,0.7-0.2,0.9c-0.2,0.3-0.3,0.5-0.6,0.7
			c-0.2,0.2-0.5,0.3-0.9,0.4c-0.3,0.1-0.7,0.1-1.1,0.1c-0.6,0-1.1-0.1-1.7-0.3s-1-0.5-1.4-0.8l0.5-0.8c0.1,0.1,0.3,0.2,0.5,0.4
			c0.2,0.1,0.4,0.2,0.6,0.3c0.2,0.1,0.5,0.2,0.8,0.2c0.3,0.1,0.5,0.1,0.8,0.1c0.5,0,0.9-0.1,1.3-0.3c0.3-0.2,0.5-0.5,0.5-0.9
			c0-0.2,0-0.4-0.2-0.5s-0.2-0.3-0.4-0.4c-0.2-0.1-0.4-0.2-0.7-0.3c-0.3-0.1-0.6-0.2-0.9-0.3c-0.4-0.1-0.7-0.2-1-0.3
			c-0.3-0.1-0.5-0.2-0.7-0.4c-0.2-0.2-0.3-0.3-0.5-0.5c-0.1-0.2-0.2-0.5-0.2-0.8c0-0.4,0.1-0.7,0.2-0.9c0.2-0.3,0.3-0.5,0.6-0.7
			c0.2-0.2,0.5-0.3,0.9-0.4c0.3-0.1,0.7-0.2,1.1-0.2c0.5,0,1,0.1,1.4,0.2c0.4,0.2,0.8,0.4,1.1,0.6L102.4,45.6z M92.3,48.6l-1.4-3.5
			l-1.4,3.5H92.3z M90.6,44h0.8l3.1,7.6h-1l-0.9-2.2h-3.2l-0.9,2.2h-1L90.6,44z"/>
		<path class="st1" d="M185.1,24.9c-1.3,0-2.4,0.2-3.5,0.4c-1,0.3-1.8,0.8-2.3,1.4v10.8h-6.6V19.2h6v3.5c0.6-1.2,1.4-2.2,2.4-2.8
			c0.9-0.6,2-1,3.1-1c0.5,0,0.7,0,0.8,0L185.1,24.9L185.1,24.9z M156.2,37.8c-1.9,0-3.3-0.6-4.2-1.7c-1-1.1-1.4-2.7-1.4-4.9v-12h6.6
			v10.5c0,0.8,0.2,1.4,0.5,1.9c0.3,0.5,0.8,0.6,1.5,0.6c0.5,0,1-0.1,1.6-0.3c0.5-0.2,1.1-0.7,1.6-1.5V19.2h6.6v10.9
			c0,0.6,0.1,1.1,0.3,1.3c0.2,0.2,0.5,0.4,1,0.5v5.5c-1.1,0.2-2.1,0.3-2.8,0.3c-2.2,0-3.5-0.8-3.9-2.5l-0.2-0.6
			c-0.8,1.1-1.9,1.9-3,2.4C159.1,37.5,157.7,37.8,156.2,37.8z M129.7,28.3c0-1.3,0.2-2.4,0.6-3.6c0.5-1.1,1.1-2.2,1.9-3
			c0.8-0.9,1.9-1.6,3.2-2.1s2.7-0.8,4.3-0.8c2.2,0,4.1,0.5,5.5,1.4c1.5,0.9,2.6,2.1,3.3,3.6l-6.4,1.9c-0.6-0.9-1.5-1.3-2.5-1.3
			c-0.9,0-1.7,0.3-2.3,1c-0.6,0.7-0.9,1.6-0.9,2.9s0.3,2.2,0.9,2.9c0.6,0.7,1.4,1,2.3,1c1.1,0,1.9-0.5,2.5-1.4l6.4,1.9
			c-0.7,1.4-1.9,2.7-3.3,3.6c-1.5,0.9-3.3,1.4-5.5,1.4c-1.6,0-3-0.3-4.3-0.8c-1.3-0.5-2.3-1.2-3.2-2.1c-0.8-0.9-1.5-1.9-1.9-3
			C129.9,30.8,129.7,29.6,129.7,28.3z M121.5,26.4c-0.1-0.9-0.4-1.6-0.9-2.1c-0.5-0.5-1.2-0.8-2.1-0.8c-0.8,0-1.5,0.3-2.1,0.8
			s-0.8,1.2-0.9,2.1H121.5z M118.6,37.8c-1.6,0-3-0.2-4.3-0.8c-1.3-0.5-2.3-1.2-3.2-2c-0.8-0.8-1.5-1.8-1.9-3
			c-0.5-1.1-0.6-2.3-0.6-3.5c0-1.3,0.2-2.5,0.6-3.7c0.4-1.2,1.1-2.2,1.9-3.1c0.8-0.9,1.9-1.6,3.1-2.1c1.3-0.5,2.7-0.8,4.3-0.8
			c1.6,0,3,0.3,4.3,0.8c1.3,0.5,2.3,1.2,3.1,2.1c0.8,0.9,1.5,1.9,1.9,3c0.4,1.1,0.6,2.3,0.6,3.6c0,0.3,0,0.7,0,1.1
			c0,0.4-0.1,0.7-0.1,0.9h-12.8c0.1,1,0.4,1.7,1.1,2.1c0.6,0.4,1.4,0.6,2.1,0.6c0.7,0,1.4-0.2,2-0.5c0.6-0.3,1.1-0.8,1.3-1.3
			l5.6,1.6c-0.7,1.4-1.9,2.7-3.4,3.6C122.7,37.3,120.8,37.8,118.6,37.8z M103.6,20.9c-0.7-0.4-1.4-0.8-2.2-1.1
			c-0.6-0.3-1.3-0.5-2.1-0.8c-0.8-0.2-1.5-0.4-2.3-0.4c-0.6,0-1.1,0.1-1.4,0.3c-0.4,0.2-0.5,0.5-0.5,0.9c0,0.3,0.1,0.6,0.3,0.8
			c0.2,0.2,0.5,0.4,0.9,0.6c0.4,0.2,0.9,0.3,1.4,0.5c0.6,0.2,1.2,0.4,1.9,0.6c1.1,0.3,2.2,0.7,3.1,1.1c0.9,0.4,1.7,0.9,2.3,1.5
			c0.6,0.6,1.1,1.3,1.5,2.1c0.3,0.8,0.5,1.8,0.5,3c0,1.5-0.3,2.7-0.8,3.7c-0.5,1-1.3,1.8-2.2,2.4c-0.9,0.6-1.9,1-3,1.3
			c-1.1,0.3-2.2,0.4-3.4,0.4c-0.9,0-1.8-0.1-2.8-0.2c-0.9-0.2-1.9-0.3-2.8-0.6c-0.9-0.2-1.8-0.5-2.7-0.9c-0.9-0.3-1.7-0.7-2.4-1.2
			l2.9-5.9c0.8,0.5,1.7,0.9,2.5,1.3c0.7,0.3,1.6,0.6,2.5,0.9c0.9,0.3,1.9,0.4,2.8,0.4c0.7,0,1.3-0.1,1.6-0.3
			c0.3-0.2,0.4-0.5,0.4-0.8c0-0.3-0.2-0.6-0.4-0.9c-0.3-0.2-0.7-0.5-1.2-0.6c-0.5-0.2-1.1-0.4-1.7-0.5c-0.6-0.2-1.4-0.4-2.1-0.6
			c-1.1-0.4-2-0.8-2.8-1.2c-0.8-0.4-1.4-0.9-1.9-1.4c-0.5-0.5-0.9-1.1-1.1-1.9C88.2,22.7,88,21.9,88,21c0-1.4,0.2-2.5,0.8-3.6
			c0.5-1,1.2-1.9,2-2.6c0.8-0.7,1.8-1.2,2.9-1.6c1.1-0.3,2.2-0.5,3.5-0.5c0.9,0,1.8,0.1,2.7,0.3c0.8,0.2,1.7,0.4,2.5,0.6
			c0.8,0.3,1.5,0.6,2.2,0.9c0.7,0.3,1.3,0.6,1.9,0.9L103.6,20.9z"/>
	</g>
	<g>
		<path class="st0" d="M268.4,39.3c1.1,0.4,2,0.6,2.7,0.6c1.4,0,2.2-0.8,2.3-2.4l-6.6-18.2h6.8l3.5,12.7l2.8-12.7h6.1l-6.2,20.4
			c-0.3,0.9-0.7,1.7-1.2,2.4s-1.1,1.4-1.8,1.9c-0.7,0.5-1.5,0.9-2.4,1.2c-0.8,0.3-1.7,0.4-2.7,0.4c-1.2,0-2.3-0.2-3.4-0.7V39.3z
			 M253.8,28.3c0,1.2,0.3,2.2,0.9,2.9c0.6,0.7,1.4,1,2.3,1s1.7-0.3,2.3-1c0.6-0.7,0.9-1.6,0.9-2.9c0-1.2-0.3-2.2-0.9-2.9
			c-0.6-0.7-1.4-1-2.3-1s-1.7,0.3-2.3,1C254.1,26.1,253.8,27.1,253.8,28.3z M257,37.8c-1.6,0-3.1-0.3-4.3-0.8
			c-1.3-0.5-2.3-1.2-3.1-2.1c-0.8-0.9-1.5-1.9-1.9-3c-0.4-1.1-0.6-2.3-0.6-3.6c0-1.3,0.2-2.4,0.6-3.6c0.4-1.1,1.1-2.2,1.9-3
			c0.8-0.9,1.9-1.6,3.1-2.1c1.3-0.5,2.7-0.8,4.3-0.8s3,0.3,4.3,0.8c1.3,0.5,2.3,1.2,3.1,2.1c0.8,0.9,1.5,1.9,1.9,3s0.6,2.3,0.6,3.6
			c0,1.3-0.2,2.4-0.6,3.6c-0.4,1.1-1.1,2.2-1.9,3c-0.8,0.9-1.9,1.6-3.1,2.1C260,37.5,258.6,37.8,257,37.8z M233.7,37.5l-6.1-18.2
			h6.8l3.3,13.1l3.3-13.1h6.1l-6.1,18.2H233.7z M226.2,37.5h-6.6V27.2c0-0.9-0.2-1.6-0.6-2c-0.4-0.4-0.9-0.6-1.4-0.6
			c-0.6,0-1.1,0.2-1.8,0.7c-0.6,0.5-1.1,1.1-1.4,1.9v10.3h-6.6V19.2h5.9v2.7c0.6-1,1.6-1.7,2.7-2.3c1.2-0.5,2.5-0.8,4.1-0.8
			c1.3,0,2.2,0.2,3,0.7c0.7,0.5,1.3,1,1.7,1.7c0.4,0.7,0.6,1.4,0.8,2.1c0.1,0.8,0.2,1.5,0.2,2.1L226.2,37.5L226.2,37.5z M205.2,31.6
			v5.9h-17.5V12.9h17.2v5.9h-10.4v3.5h8.9v5.5h-8.9v3.9H205.2z"/>
		<polygon class="st2" points="46.8,21.5 54.2,31.4 71.3,10.5 71.3,9.2 54,22.2 49.4,18.8 		"/>
	</g>
</g>
</svg>
