<?xml version="1.0" encoding="UTF-8" standalone="no"?>
<svg
   xmlns:dc="http://purl.org/dc/elements/1.1/"
   xmlns:cc="http://creativecommons.org/ns#"
   xmlns:rdf="http://www.w3.org/1999/02/22-rdf-syntax-ns#"
   xmlns:svg="http://www.w3.org/2000/svg"
   xmlns="http://www.w3.org/2000/svg"
   version="1.1"
   id="svg2"
   xml:space="preserve"
   width="185.33333"
   height="36.663067"
   viewBox="0 0 185.33333 36.663067"><metadata
     id="metadata8"><rdf:RDF><cc:Work
         rdf:about=""><dc:format>image/svg+xml</dc:format><dc:type
           rdf:resource="http://purl.org/dc/dcmitype/StillImage" /></cc:Work></rdf:RDF></metadata><defs
     id="defs6"><clipPath
       clipPathUnits="userSpaceOnUse"
       id="clipPath32"><path
         d="M 0,0 H 139 V 27.498 H 0 Z"
         id="path30" /></clipPath></defs><g
     id="g10"
     transform="matrix(1.3333333,0,0,-1.3333333,0,36.663067)"><path
       d="m 89.94,0.009 h 4.782 V 27.498 H 89.94 Z"
       style="fill:#211e1f;fill-opacity:1;fill-rule:nonzero;stroke:none"
       id="path12" /><g
       id="g14"
       transform="translate(120.5163,27.4968)"><path
         d="m 0,0 v -27.488 h 18.483 v 4.758 H 4.786 v 6.586 h 11.301 v 4.79 H 4.786 v 6.562 H 18.472 V 0 Z"
         style="fill:#211e1f;fill-opacity:1;fill-rule:nonzero;stroke:none"
         id="path16" /></g><g
       id="g18"
       transform="translate(25.0101,27.4968)"><path
         d="m 0,0 v -27.488 h 18.483 v 4.758 H 4.785 v 6.586 h 11.301 v 4.79 H 4.785 v 6.562 H 18.473 V 0 Z"
         style="fill:#211e1f;fill-opacity:1;fill-rule:nonzero;stroke:none"
         id="path20" /></g><g
       id="g22"
       transform="translate(97.4043,27.4968)"><path
         d="m 0,0 v -4.792 h 7.823 v -22.705 h 4.792 v 22.705 h 7.824 V 0 Z"
         style="fill:#211e1f;fill-opacity:1;fill-rule:nonzero;stroke:none"
         id="path24" /></g><g
       id="g26"><g
         id="g28"
         clip-path="url(#clipPath32)"><g
           id="g34"
           transform="translate(20.6748,12.8503)"><path
             d="m 0,0 c -1.047,1.091 -2.327,1.909 -3.803,2.434 -1.395,0.489 -3.286,0.988 -5.624,1.48 -2.226,0.477 -3.742,0.953 -4.508,1.435 -0.632,0.392 -0.926,0.947 -0.926,1.757 0,0.903 0.411,1.616 1.258,2.179 0.924,0.606 2.281,0.774 4.041,0.774 4.735,0 5.534,-2.093 5.725,-3.775 l 0.079,-0.65 H 1.074 L 1.038,6.397 c -0.114,2.622 -1.18,4.681 -3.162,6.129 -1.937,1.413 -4.484,2.121 -7.583,2.121 -2.962,0 -5.389,-0.708 -7.213,-2.115 -1.866,-1.446 -2.818,-3.324 -2.818,-5.581 0,-2.024 0.74,-3.677 2.208,-4.899 1.408,-1.176 3.629,-2.063 6.766,-2.706 2.906,-0.6 4.964,-1.203 6.115,-1.794 0.978,-0.506 1.43,-1.263 1.43,-2.379 0,-1.072 -0.466,-1.891 -1.433,-2.518 -1.051,-0.682 -2.48,-0.906 -4.25,-0.906 -1.89,0 -3.51,0.291 -4.818,1.112 -1.25,0.776 -1.931,1.955 -2.09,3.613 l -0.059,0.66 h -4.806 l 0.032,-0.754 c 0.1,-2.688 1.151,-4.918 3.119,-6.643 1.961,-1.704 4.907,-2.578 8.764,-2.578 3.038,0 5.548,0.782 7.469,2.321 1.96,1.571 2.953,3.572 2.953,5.948 C 1.662,-2.682 1.101,-1.147 0,0"
             style="fill:#211e1f;fill-opacity:1;fill-rule:nonzero;stroke:none"
             id="path36" /></g><g
           id="g38"
           transform="translate(56.8066,4.5995)"><path
             d="m 0,0 c -4.539,0 -8.236,4.217 -8.236,9.144 0,4.928 3.697,8.97 8.236,8.97 4.538,0 8.23,-4.042 8.23,-8.97 C 8.23,4.217 4.538,0 0,0 m 24.441,5.543 c 2.3,1.157 4.11,3.623 4.514,6.129 0.1,0.61 0.197,1.241 0.197,1.882 0,2.406 -0.976,4.859 -2.717,6.496 l -0.082,0.093 c -0.772,0.79 -1.631,1.405 -2.596,1.862 -1.434,0.61 -2.493,0.847 -4.043,0.893 -0.034,0 -0.063,0 -0.097,-0.006 l -19.759,0.006 0.008,-0.006 c -7.117,-0.068 -12.887,-6.204 -12.887,-13.741 0,-7.582 5.836,-13.745 13.001,-13.745 7.173,0 13.003,6.163 13.003,13.745 0,3.364 -1.152,6.57 -3.059,8.963 h 8.195 1.839 c 2.658,-0.162 4.306,-2.327 4.306,-4.256 0,-2.665 -1.92,-4.707 -4.598,-4.707 h -0.161 l 3.551,-4.217 c 0.488,0.162 0.897,0.355 1.385,0.609"
             style="fill:#211e1f;fill-opacity:1;fill-rule:nonzero;stroke:none"
             id="path40" /></g><g
           id="g42"
           transform="translate(79.801,9.5332)"><path
             d="M 0,0 -3.551,4.217 V 4.22 H -9.966 L 1.668,-9.533 h 6.347 z"
             style="fill:#cf202a;fill-opacity:1;fill-rule:nonzero;stroke:none"
             id="path44" /></g><g
           id="g46"
           transform="translate(58.7421,13.7527)"><path
             d="m 0,0 11.557,-13.753 h 6.336 L 6.322,0 Z"
             style="fill:#cf202a;fill-opacity:1;fill-rule:nonzero;stroke:none"
             id="path48" /></g></g></g></g></svg>
