<?xml version="1.0" encoding="UTF-8"?>
<svg id="Layer_2" data-name="Layer 2" xmlns="http://www.w3.org/2000/svg" xmlns:xlink="http://www.w3.org/1999/xlink" viewBox="0 0 141.73 52.9">
  <defs>
    <style>
      .cls-1 {
        clip-path: url(#clippath);
      }

      .cls-2 {
        fill: none;
      }

      .cls-2, .cls-3 {
        stroke-width: 0px;
      }

      .cls-4 {
        clip-path: url(#clippath-1);
      }

      .cls-3 {
        fill: #2bb8bc;
      }
    </style>
    <clipPath id="clippath">
      <rect class="cls-2" width="141.73" height="52.9"/>
    </clipPath>
    <clipPath id="clippath-1">
      <rect class="cls-2" y="0" width="141.73" height="52.9"/>
    </clipPath>
  </defs>
  <g id="Layer_1-2" data-name="Layer 1">
    <g id="Logo_RGB" data-name="Logo RGB">
      <g class="cls-1">
        <g class="cls-4">
          <path class="cls-3" d="M9.5,27.43c.58,0,1.06.47,1.06,1.06v5.93c0,.82-.91,1.34-1.61.91-1.13-.69-2.24-1.4-3.35-2.13-.3-.2-.48-.53-.48-.89v-3.82c0-.58.47-1.06,1.06-1.06h3.31ZM17.42,27.43h-3.31c-.58,0-1.06.47-1.06,1.06v8.62c0,.39.21.74.55.93,1.1.61,2.22,1.21,3.35,1.78.7.36,1.54-.16,1.54-.95v-10.39c0-.58-.47-1.06-1.06-1.06M25.33,27.43h-3.31c-.58,0-1.06.47-1.06,1.06v12.62c0,.41.24.79.62.97,1.1.51,2.22,1,3.34,1.47.7.29,1.47-.22,1.47-.98v-14.09c0-.58-.47-1.06-1.06-1.06M33.25,27.43h-3.31c-.58,0-1.06.47-1.06,1.06v15.91c0,.44.28.84.69.99,1.11.42,2.22.81,3.35,1.19.68.23,1.39-.28,1.39-1.01v-17.1c0-.58-.47-1.06-1.06-1.06M41.16,27.43h-3.31c-.58,0-1.06.47-1.06,1.06v18.56c0,.47.31.89.76,1.02,1.11.33,2.22.64,3.34.93.67.18,1.32-.33,1.32-1.03v-19.48c0-.58-.47-1.06-1.06-1.06M49.08,27.43h-3.31c-.58,0-1.06.47-1.06,1.06v20.59c0,.5.35.93.83,1.04,1.11.24,2.22.47,3.34.69.65.12,1.25-.38,1.25-1.04v-21.28c0-.58-.47-1.06-1.06-1.06M56.99,27.43h-3.31c-.58,0-1.06.47-1.06,1.06v22.05c0,.52.38.97.9,1.05,1.11.16,2.22.31,3.35.45.63.08,1.18-.42,1.18-1.05v-22.49c0-.58-.47-1.06-1.06-1.06M64.91,27.43h-3.31c-.58,0-1.06.47-1.06,1.06v22.95c0,.55.42,1.01.97,1.06,1.11.09,2.22.17,3.34.23.61.03,1.11-.46,1.11-1.06v-23.18c0-.58-.47-1.06-1.06-1.06M72.82,27.43h-3.31c-.58,0-1.06.47-1.06,1.06v23.34c0,.58.46,1.05,1.04,1.06.58.01,1.16.02,1.75.02.54,0,1.07,0,1.61-.01.58-.01,1.04-.48,1.04-1.06v-23.34c0-.58-.47-1.06-1.06-1.06M80.74,27.43h-3.31c-.58,0-1.06.47-1.06,1.06v23.18c0,.6.51,1.09,1.11,1.06,1.12-.06,2.23-.13,3.34-.22.55-.04.97-.51.97-1.06v-22.97c0-.58-.47-1.06-1.06-1.06M88.65,27.43h-3.31c-.59,0-1.06.47-1.06,1.06v22.51c0,.63.55,1.13,1.18,1.05,1.12-.13,2.24-.28,3.35-.44.52-.08.9-.52.9-1.05v-22.07c0-.58-.47-1.06-1.06-1.06M96.56,27.43h-3.31c-.58,0-1.06.47-1.06,1.06v21.3c0,.66.6,1.17,1.25,1.04,1.12-.21,2.23-.44,3.34-.69.49-.11.83-.54.83-1.04v-20.62c0-.58-.47-1.06-1.06-1.06M104.48,27.43h-3.31c-.58,0-1.06.47-1.06,1.06v19.52c0,.69.65,1.2,1.32,1.03,1.12-.29,2.24-.6,3.35-.93.45-.13.76-.55.76-1.02v-18.6c0-.58-.47-1.06-1.06-1.06M112.39,27.43h-3.31c-.58,0-1.06.47-1.06,1.06v17.15c0,.72.71,1.24,1.39,1.01,1.12-.38,2.24-.78,3.34-1.19.42-.15.69-.55.69-1v-15.97c0-.58-.47-1.06-1.06-1.06M120.31,27.43h-3.31c-.58,0-1.06.47-1.06,1.06v14.15c0,.75.77,1.27,1.46.98,1.12-.47,2.24-.96,3.35-1.47.38-.17.62-.55.62-.97v-12.69c0-.58-.47-1.06-1.06-1.06M128.22,27.43h-3.31c-.58,0-1.06.47-1.06,1.06v10.46c0,.79.83,1.31,1.54.95,1.13-.58,2.24-1.17,3.35-1.78.34-.19.55-.54.55-.93v-8.7c0-.58-.47-1.06-1.06-1.06M136.14,27.43h-3.31c-.58,0-1.06.47-1.06,1.06v6.02c0,.82.9,1.34,1.61.91,1.13-.69,2.24-1.4,3.34-2.12.3-.2.48-.53.48-.89v-3.91c0-.58-.47-1.06-1.06-1.06M20.99,6.42c.52,0,.85.09.99.26.12.18.09.53-.06,1.02l-3.44,12.9c-.18.67-.67.99-1.52.99h-2.86c-.88,0-1.4-.32-1.55-.99l-.93-3.91c-.26-1.17-.44-2.54-.53-4.14h-.2c-.15,1.6-.35,2.97-.61,4.14l-.96,3.91c-.17.67-.67.99-1.52.99h-2.65c-.85,0-1.34-.32-1.55-.99L.13,7.7c-.15-.49-.17-.84-.06-1.02.15-.17.47-.26.99-.26h2.74c.67,0,1.14.06,1.37.2.26.15.41.44.5.9l.7,3.88c.18,1.02.29,2.54.35,4.55h.23c.09-2.01.26-3.53.47-4.55l.87-3.85c.09-.47.23-.79.5-.93.23-.15.7-.2,1.37-.2h1.86c.67,0,1.11.06,1.34.2.23.15.41.44.5.9l.9,3.88c.23,1.08.38,2.6.47,4.55h.23c.03-1.9.15-3.41.35-4.55l.7-3.85c.09-.47.23-.79.47-.93.23-.15.7-.2,1.37-.2h2.62ZM27.9,0c.73,0,1.11.38,1.11,1.11v4.99c.7-.09,1.37-.12,1.98-.12,4.38,0,6.56,2.1,6.56,6.3v8.2c0,.73-.38,1.11-1.11,1.11h-3.21c-.73,0-1.11-.38-1.11-1.11v-7.99c0-1.08-.58-1.6-1.75-1.6-.61,0-1.05.03-1.37.12v9.48c0,.73-.38,1.11-1.11,1.11h-3.21c-.73,0-1.11-.38-1.11-1.11V1.11C23.58.38,23.96,0,24.69,0h3.21ZM46.28,5.98c4.52,0,6.8,2.1,6.8,6.3v7.18c0,.88-.38,1.46-1.11,1.75-1.28.55-3.21.81-5.78.81s-4.49-.41-5.51-1.19c-.96-.73-1.43-1.93-1.43-3.65,0-1.84.56-3.12,1.66-3.85,1.05-.67,2.86-1.02,5.43-1.02l1.31.03v-.73c0-.99-.55-1.49-1.63-1.49-.79,0-1.4.32-1.9.99-.38.53-.93.64-1.61.38l-2.1-.88c-.79-.35-.99-.88-.61-1.6,1.05-2.01,3.21-3.03,6.48-3.03M47.65,16.02c-.26-.03-.76-.03-1.55-.03-1.02,0-1.55.38-1.55,1.17s.5,1.17,1.49,1.17c.67,0,1.17-.03,1.46-.09.09,0,.14-.06.14-.15v-2.07ZM60.75,20.48c0,.73-.38,1.11-1.11,1.11h-3.21c-.73,0-1.11-.38-1.11-1.11V1.11C55.32.38,55.7,0,56.43,0h3.21c.73,0,1.11.38,1.11,1.11v19.37ZM62.79,12.72c0-2.19.61-3.85,1.87-5.02,1.25-1.14,3.06-1.72,5.43-1.72s4.26.61,5.54,1.87c1.2,1.14,1.78,2.65,1.78,4.52v1.6c0,1.02-.52,1.52-1.6,1.52h-7.58v.56c0,1.25.64,1.9,1.89,1.9.99,0,1.78-.35,2.33-1.08.38-.53.9-.61,1.63-.29l2.01.88c.79.38.96.93.56,1.69-1.11,1.93-3.3,2.89-6.59,2.89-2.48,0-4.35-.64-5.6-1.92-1.11-1.17-1.66-2.77-1.66-4.81v-2.57ZM71.95,11.58c0-1.17-.61-1.75-1.87-1.75s-1.87.58-1.87,1.75v.38h3.73v-.38ZM83.5.03c.76,0,1.14.38,1.14,1.11v5.02c.82-.12,1.49-.18,1.98-.18,4.38,0,6.56,2.1,6.56,6.27v3.15c0,4.4-2.36,6.62-7.12,6.62-2.31,0-4.2-.32-5.75-.99-.5-.23-.79-.47-.93-.67-.15-.2-.21-.55-.21-1.05V1.14c0-.73.38-1.11,1.14-1.11h3.18ZM87.76,12.14c0-.96-.55-1.46-1.66-1.46-.35,0-.85.06-1.46.2v6.12c0,.09.03.12.06.15.26.09.7.15,1.25.15,1.19,0,1.81-.53,1.81-1.6v-3.56ZM94.82,12.37c0-2.01.61-3.56,1.84-4.69,1.26-1.14,3.06-1.69,5.4-1.69s4.17.55,5.43,1.69c1.19,1.11,1.81,2.68,1.81,4.69v3.27c0,2.01-.61,3.59-1.81,4.67-1.26,1.14-3.06,1.72-5.43,1.72s-4.14-.58-5.4-1.72c-1.23-1.11-1.84-2.66-1.84-4.67v-3.27ZM103.9,12.22c0-1.05-.61-1.58-1.84-1.58s-1.81.52-1.81,1.58v3.56c0,1.02.61,1.55,1.81,1.55s1.84-.53,1.84-1.55v-3.56ZM118.68,5.98c4.38,0,6.57,2.1,6.57,6.3v8.2c0,.73-.38,1.11-1.11,1.11h-3.21c-.73,0-1.11-.38-1.11-1.11v-7.99c0-1.08-.58-1.61-1.75-1.61-.52,0-.96.03-1.28.12-.06.03-.09.06-.09.12v9.37c0,.73-.38,1.11-1.11,1.11h-3.21c-.73,0-1.11-.38-1.11-1.11v-11.67c0-.85.41-1.43,1.2-1.75,1.87-.73,3.94-1.08,6.21-1.08M127.12,15.29c0,2.04.55,3.65,1.66,4.81,1.25,1.28,3.12,1.92,5.6,1.92,3.3,0,5.48-.96,6.59-2.89.41-.76.23-1.31-.55-1.69l-2.01-.88c-.73-.32-1.25-.24-1.63.29-.55.73-1.34,1.08-2.33,1.08-1.25,0-1.9-.64-1.9-1.9v-.56h7.59c1.08,0,1.6-.49,1.6-1.52v-1.6c0-1.87-.58-3.39-1.78-4.52-1.28-1.26-3.12-1.87-5.54-1.87s-4.17.58-5.43,1.72c-1.25,1.17-1.87,2.83-1.87,5.02v2.57ZM136.28,11.96h-3.73v-.38c0-1.17.61-1.75,1.87-1.75s1.87.58,1.87,1.75v.38Z"/>
        </g>
      </g>
    </g>
  </g>
</svg>